# xmcd CD database file
#
# Track frame offsets:
#	183
#	33638
#	45583
#	66628
#	79025
#	92628
#	117318
#	129263
#	141400
#	160698
#
# Disc length: 2459 seconds
#
# Revision: 7
# Processed by: cddbd v1.5.2PL0 Copyright (c) Steve Scherf et al.
# Submitted via: CDex 1.51
#
DISCID=8709990a
DTITLE=Crosby, Stills and Nash - Crosby, Stills and Nash
DYEAR=1969
DGENRE=Folk-Rock
TTITLE0=Suite: Judy Blue Eyes
TTITLE1=Marrakesh Express
TTITLE2=Guinnevere
TTITLE3=You Dont Have To Cry
TTITLE4=Pre-Road Downs
TTITLE5=Wooden Ships
TTITLE6=Lady Of The Island
TTITLE7=Helplessly Hoping
TTITLE8=Long Time Gone
TTITLE9=49 Bye-Byes
EXTD=YEAR: 1969
EXTT0=
EXTT1=
EXTT2=
EXTT3=
EXTT4=
EXTT5=
EXTT6=
EXTT7=
EXTT8=
EXTT9=
PLAYORDER=
